<svg width="77" height="77" viewBox="0 0 77 77" fill="none" xmlns="http://www.w3.org/2000/svg">
<path d="M32.0833 41.7083C33.4612 43.5503 35.219 45.0745 37.2377 46.1774C39.2563 47.2802 41.4886 47.9361 43.783 48.1004C46.0774 48.2647 48.3803 47.9337 50.5356 47.1297C52.6908 46.3258 54.6479 45.0677 56.2742 43.4408L65.8992 33.8158C68.8213 30.7903 70.4382 26.7382 70.4016 22.5321C70.3651 18.326 68.678 14.3026 65.7038 11.3283C62.7295 8.35408 58.706 6.66699 54.5 6.63044C50.2939 6.59389 46.2417 8.2108 43.2162 11.1329L37.6979 16.6192M44.9167 35.2917C43.5388 33.4497 41.781 31.9255 39.7623 30.8227C37.7437 29.7198 35.5114 29.0639 33.217 28.8996C30.9226 28.7353 28.6197 29.0663 26.4644 29.8703C24.3092 30.6743 22.3521 31.9323 20.7258 33.5592L11.1008 43.1842C8.17871 46.2097 6.5618 50.2618 6.59835 54.4679C6.6349 58.674 8.32199 62.6974 11.2962 65.6717C14.2705 68.6459 18.2939 70.333 22.5 70.3696C26.7061 70.4061 30.7583 68.7892 33.7837 65.8671L39.27 60.3808" stroke="#14AE5C" stroke-width="4" stroke-linecap="round" stroke-linejoin="round"/>
</svg>
